<svg  height="24" viewBox="0 0 24 24" width="24" xmlns="http://www.w3.org/2000/svg">
  <path d="m21.507271,6.109226c-0.710702,0.313085 -1.475979,0.52502 -2.277641,0.62015c0.818641,-0.487691 1.448085,-1.258363 1.744008,-2.178353c-0.76649,0.451566 -1.615451,0.779101 -2.517775,0.954911c-0.72283,-0.765855 -1.753711,-1.243913 -2.894957,-1.243913c-2.190319,0 -3.96586,1.762912 -3.96586,3.937652c0,0.308269 0.035171,0.609313 0.103088,0.89711c-3.296394,-0.162564 -6.219245,-1.730399 -8.175493,-4.112258c-0.340797,0.581617 -0.536058,1.257159 -0.536058,1.978459c0,1.365534 0.699786,2.570914 1.764626,3.277764c-0.651274,-0.020471 -1.262526,-0.197485 -1.797371,-0.492508c0,0.016858 0,0.032513 0,0.049371c0,1.907413 1.366827,3.499332 3.181178,3.860585c-0.332308,0.090313 -0.682807,0.13848 -1.044222,0.13848c-0.255901,0 -0.504525,-0.025288 -0.745873,-0.071046c0.504525,1.564223 1.969589,2.703373 3.705108,2.734681c-1.357125,1.056061 -3.067174,1.685845 -4.925186,1.685845c-0.32018,0 -0.635508,-0.018063 -0.945985,-0.055392c1.754923,1.117474 3.839729,1.768933 6.079773,1.768933c7.295,0 11.283903,-6.000404 11.283903,-11.203644c0,-0.170993 -0.003638,-0.340782 -0.010915,-0.509366c0.771342,-0.55392 1.444446,-1.247525 1.975653,-2.037464z"/>
</svg>